<?xml version="1.0" encoding="UTF-8" standalone="no"?>
<svg width="128px" height="105px" viewBox="0 0 128 105" version="1.1" xmlns="http://www.w3.org/2000/svg" xmlns:xlink="http://www.w3.org/1999/xlink" xmlns:sketch="http://www.bohemiancoding.com/sketch/ns">
    <!-- Generator: Sketch 3.4.2 (15855) - http://www.bohemiancoding.com/sketch -->
    <title>Path Copy</title>
    <desc>Created with Sketch.</desc>
    <defs></defs>
    <g id="New-Icons" stroke="none" stroke-width="1" fill="none" fill-rule="evenodd" sketch:type="MSPage">
        <g id="dukt-plugin-icons" sketch:type="MSArtboardGroup" transform="translate(-1600.000000, -332.000000)" fill="#2E7FBA">
            <path d="M1714.90134,357.922436 C1714.96138,359.046597 1714.98473,360.180767 1714.98473,361.318271 C1714.98473,396.023846 1688.5686,436.040001 1640.263,436.040001 C1625.43541,436.040001 1611.62857,431.693465 1600,424.241306 C1602.04484,424.46814 1604.14639,424.611579 1606.26462,424.611579 C1618.57035,424.611579 1629.89203,420.408482 1638.88532,413.359955 C1627.38018,413.156471 1617.6897,405.554202 1614.3439,395.123182 C1615.94842,395.430075 1617.5963,395.600201 1619.2742,395.600201 C1621.67597,395.600201 1623.99768,395.273293 1626.19597,394.676186 C1614.18045,392.251066 1605.12378,381.649921 1605.12378,368.913869 L1605.12378,368.586961 C1608.66639,370.548407 1612.71937,371.729277 1617.02254,371.862708 C1609.97735,367.152571 1605.34727,359.106642 1605.34727,349.999931 C1605.34727,345.18972 1606.64156,340.683065 1608.90323,336.80354 C1621.8461,352.691915 1641.2037,363.142949 1663.03312,364.237089 C1662.57945,362.322345 1662.35929,360.307527 1662.35929,358.249343 C1662.35929,343.758665 1674.11462,332 1688.61197,332 C1696.17087,332 1702.99923,335.189017 1707.78943,340.28277 C1713.76383,339.111907 1719.39131,336.926964 1724.46505,333.914744 C1722.50027,340.042593 1718.33387,345.18972 1712.91988,348.43878 C1718.22712,347.811652 1723.28085,346.400612 1727.99766,344.302399 C1724.48507,349.5963 1720.03846,354.219707 1714.90134,357.922436 L1714.90134,357.922436 Z" id="Path-Copy" sketch:type="MSShapeGroup"></path>
        </g>
    </g>
</svg>