<?xml version="1.0" encoding="UTF-8" standalone="no"?>
<svg width="128px" height="105px" viewBox="0 0 128 105" version="1.1" xmlns="http://www.w3.org/2000/svg" xmlns:xlink="http://www.w3.org/1999/xlink" xmlns:sketch="http://www.bohemiancoding.com/sketch/ns">
    <!-- Generator: Sketch 3.4.2 (15855) - http://www.bohemiancoding.com/sketch -->
    <title>twitter</title>
    <desc>Created with Sketch.</desc>
    <defs></defs>
    <g id="New-Icons" stroke="none" stroke-width="1" fill="none" fill-rule="evenodd" sketch:type="MSPage">
        <g id="dukt-plugin-icons" sketch:type="MSArtboardGroup" transform="translate(-1600.000000, -76.000000)" fill="#FFFFFF">
            <path d="M1714.90134,101.922436 C1714.96138,103.046597 1714.98473,104.180767 1714.98473,105.318271 C1714.98473,140.023846 1688.5686,180.040001 1640.263,180.040001 C1625.43541,180.040001 1611.62857,175.693465 1600,168.241306 C1602.04484,168.46814 1604.14639,168.611579 1606.26462,168.611579 C1618.57035,168.611579 1629.89203,164.408482 1638.88532,157.359955 C1627.38018,157.156471 1617.6897,149.554202 1614.3439,139.123182 C1615.94842,139.430075 1617.5963,139.600201 1619.2742,139.600201 C1621.67597,139.600201 1623.99768,139.273293 1626.19597,138.676186 C1614.18045,136.251066 1605.12378,125.649921 1605.12378,112.913869 L1605.12378,112.586961 C1608.66639,114.548407 1612.71937,115.729277 1617.02254,115.862708 C1609.97735,111.152571 1605.34727,103.106642 1605.34727,93.9999309 C1605.34727,89.1897196 1606.64156,84.6830653 1608.90323,80.8035398 C1621.8461,96.6919146 1641.2037,107.142949 1663.03312,108.237089 C1662.57945,106.322345 1662.35929,104.307527 1662.35929,102.249343 C1662.35929,87.758665 1674.11462,76 1688.61197,76 C1696.17087,76 1702.99923,79.1890167 1707.78943,84.2827703 C1713.76383,83.1119075 1719.39131,80.926964 1724.46505,77.9147443 C1722.50027,84.0425933 1718.33387,89.1897196 1712.91988,92.4387805 C1718.22712,91.8116517 1723.28085,90.4006119 1727.99766,88.302399 C1724.48507,93.5963001 1720.03846,98.2197071 1714.90134,101.922436 L1714.90134,101.922436 Z" id="twitter" sketch:type="MSShapeGroup"></path>
        </g>
    </g>
</svg>