<?xml version="1.0" encoding="UTF-8" standalone="no"?>
<svg width="512px" height="512px" viewBox="0 0 512 512" version="1.1" xmlns="http://www.w3.org/2000/svg" xmlns:xlink="http://www.w3.org/1999/xlink" xmlns:sketch="http://www.bohemiancoding.com/sketch/ns">
    <!-- Generator: Sketch 3.4 (15575) - http://www.bohemiancoding.com/sketch -->
    <title>twitter-color</title>
    <desc>Created with Sketch.</desc>
    <defs></defs>
    <g id="Icons" stroke="none" stroke-width="1" fill="none" fill-rule="evenodd" sketch:type="MSPage">
        <g id="twitter-color" sketch:type="MSArtboardGroup" stroke="#979797" fill="#2980B9">
            <path d="M433.352223,165.321879 C433.561436,169.23881 433.642796,173.19061 433.642796,177.154034 C433.642796,298.079118 341.600722,437.507925 173.288905,437.507925 C121.62493,437.507925 73.5175743,422.363232 33,396.397581 C40.1248632,397.187941 47.4473164,397.687727 54.8278843,397.687727 C97.7049158,397.687727 137.153179,383.042821 168.48863,358.483545 C128.401104,357.774546 94.6364592,331.285862 82.9786488,294.940924 C88.5692837,296.010234 94.3110168,296.603004 100.157356,296.603004 C108.525874,296.603004 116.615442,295.463956 124.27496,293.383449 C82.4091247,284.933571 50.8528383,247.995862 50.8528383,203.619472 L50.8528383,202.480423 C63.1964022,209.314713 77.3182762,213.429234 92.3118709,213.894152 C67.7642183,197.482558 51.6315754,169.448023 51.6315754,137.717393 C51.6315754,120.957111 56.1412767,105.254517 64.0216311,91.7370359 C109.118644,147.097107 176.566574,183.511783 252.627104,187.324107 C251.046384,180.652539 250.27927,173.632282 250.27927,166.460927 C250.27927,115.970869 291.238516,75 341.75182,75 C368.089406,75 391.881567,86.1115321 408.572111,103.859764 C429.3888,99.7801114 448.996702,92.1670847 466.675196,81.6715685 C459.829284,103.022912 445.31223,120.957111 426.448195,132.277856 C444.940295,130.092743 462.549052,125.176239 478.983891,117.865409 C466.744934,136.311017 451.251553,152.420414 433.352223,165.321879 L433.352223,165.321879 Z" id="Path-Copy" sketch:type="MSShapeGroup"></path>
        </g>
    </g>
</svg>