<?xml version="1.0" encoding="UTF-8"?>
<svg width="200px" height="200px" viewBox="0 0 200 200" version="1.1" xmlns="http://www.w3.org/2000/svg" xmlns:xlink="http://www.w3.org/1999/xlink">
    <!-- Generator: Sketch 48.1 (47250) - http://www.bohemiancoding.com/sketch -->
    <title>twitter</title>
    <desc>Created with Sketch.</desc>
    <defs></defs>
    <g id="Page-1" stroke="none" stroke-width="1" fill="none" fill-rule="evenodd">
        <g id="twitter">
            <rect id="Rectangle" fill="#3386C0" x="0" y="0" width="200" height="200" rx="100"></rect>
            <path d="M141.768315,81.6109041 C141.815225,82.4891715 141.833468,83.3752574 141.833468,84.2639493 C141.833468,111.378176 121.195486,142.64137 83.4560475,142.64137 C71.8717782,142.64137 61.0849861,139.245576 52,133.423471 C53.5975607,133.600688 55.2394256,133.712752 56.8943212,133.712752 C66.5083527,133.712752 75.3535743,130.429022 82.3797138,124.922259 C73.3911548,124.763285 65.8203331,118.823903 63.2063798,110.67452 C64.4599307,110.914284 65.7473613,111.047197 67.0582471,111.047197 C68.9346642,111.047197 70.748534,110.791796 72.4659769,110.325298 C63.0786792,108.430638 56.0030231,100.148341 56.0030231,90.1981184 L56.0030231,89.9427172 C58.7707383,91.4751244 61.9371922,92.3976962 65.2991061,92.5019416 C59.7949493,88.8220792 56.1776342,82.5360819 56.1776342,75.4213338 C56.1776342,71.6632874 57.1888145,68.1423992 58.9557739,65.1114644 C69.0675771,77.5244846 84.1909776,85.6895051 101.245524,86.5443173 C100.89109,85.0483959 100.719085,83.4742905 100.719085,81.8663053 C100.719085,70.5452555 109.903104,61.3586302 121.229366,61.3586302 C127.134867,61.3586302 132.469625,63.8500951 136.212035,67.829663 C140.879623,66.9149097 145.276172,65.2078914 149.240103,62.8545516 C147.70509,67.6420213 144.450027,71.6632874 140.220271,74.2016627 C144.366631,73.7117094 148.314925,72.6093143 152,70.9700555 C149.25574,75.1059915 145.781762,78.7180944 141.768315,81.6109041 L141.768315,81.6109041 Z" fill="#FFFFFF"></path>
        </g>
    </g>
</svg>