<?xml version="1.0" encoding="UTF-8"?>
<svg xmlns="http://www.w3.org/2000/svg" width="100" height="100" viewBox="0 0 100 100" fill="none">
  <rect width="100" height="100" rx="22" fill="#1D9BF0"></rect>
  <path fill-rule="evenodd" clip-rule="evenodd" d="M69.8826 39.8051C69.9061 40.2442 69.9152 40.6873 69.9152 41.1316C69.9152 54.6882 59.5966 70.3193 40.7275 70.3193C34.9356 70.3193 29.5423 68.6215 25 65.7105C25.7988 65.7991 26.6197 65.8552 27.4471 65.8552C32.2539 65.8552 36.6764 64.2133 40.1893 61.4601C35.6952 61.3806 31.9099 58.411 30.603 54.3364C31.2298 54.4563 31.8734 54.5228 32.5289 54.5228C33.467 54.5228 34.374 54.3951 35.2326 54.1618C30.5392 53.2145 27.0014 49.0735 27.0014 44.0986V43.9709C28.3853 44.7371 29.9684 45.1983 31.6493 45.2505C28.8973 43.4106 27.0887 40.2677 27.0887 36.7104C27.0887 34.8315 27.5943 33.0711 28.4778 31.5557C33.5335 37.762 41.0949 41.8443 49.6219 42.2717C49.4447 41.5238 49.3587 40.7368 49.3587 39.9328C49.3587 34.2725 53.9506 29.6793 59.6135 29.6793C62.5662 29.6793 65.2335 30.925 67.1046 32.9147C69.4383 32.4574 71.6365 31.6039 73.6184 30.4273C72.8509 32.8209 71.2235 34.8315 69.1087 36.1006C71.1818 35.8557 73.1558 35.3045 74.9983 34.4849C73.6262 36.5528 71.8893 38.3588 69.8826 39.8051Z" fill="white"></path>
</svg>
